<svg width="24" height="144" viewBox="0 0 24 144" fill="none" xmlns="http://www.w3.org/2000/svg">
<path d="M9.98438 0.000976562H10L15 9H13.9834L9.98438 1.72852L10 64H9L9.00098 0H9.98438V0.000976562Z" fill="#999999"/>
<path d="M6.13626 135.719H17.8643V139.063C17.8643 139.937 17.7523 140.705 17.5283 141.367C17.3149 142.028 16.9576 142.54 16.4563 142.903C15.9549 143.265 15.2776 143.447 14.4243 143.447C13.6029 143.447 12.9256 143.265 12.3923 142.903C11.8589 142.54 11.4589 142.033 11.1923 141.383C10.9363 140.732 10.8083 139.98 10.8083 139.127V137.191H6.13626V135.719ZM12.0083 137.191V138.935C12.0083 139.959 12.2003 140.721 12.5843 141.223C12.9683 141.724 13.5816 141.975 14.4243 141.975C15.2776 141.975 15.8643 141.713 16.1843 141.191C16.5043 140.679 16.6643 139.905 16.6643 138.871V137.191H12.0083Z" fill="#999999"/>
<path d="M5.92826 128.164C5.92826 127.182 6.1736 126.313 6.66426 125.556C7.1656 124.809 7.87493 124.222 8.79226 123.796C9.7096 123.369 10.7923 123.156 12.0403 123.156C13.2989 123.156 14.3763 123.369 15.2723 123.796C16.1789 124.222 16.8723 124.809 17.3523 125.556C17.8323 126.313 18.0723 127.182 18.0723 128.164C18.0723 129.145 17.8269 130.009 17.3363 130.756C16.8563 131.513 16.1683 132.105 15.2723 132.532C14.3763 132.958 13.2989 133.172 12.0403 133.172C10.7923 133.172 9.7096 132.958 8.79226 132.532C7.87493 132.105 7.1656 131.513 6.66426 130.756C6.1736 130.009 5.92826 129.145 5.92826 128.164ZM7.22426 128.164C7.22426 128.868 7.4216 129.481 7.81627 130.004C8.21093 130.526 8.77093 130.932 9.49627 131.22C10.2216 131.508 11.0696 131.652 12.0403 131.652C13.0216 131.652 13.8643 131.508 14.5683 131.22C15.2829 130.932 15.8269 130.526 16.2003 130.004C16.5843 129.481 16.7763 128.868 16.7763 128.164C16.7763 127.47 16.5843 126.857 16.2003 126.324C15.8269 125.801 15.2829 125.396 14.5683 125.108C13.8643 124.82 13.0216 124.676 12.0403 124.676C11.0696 124.676 10.2216 124.82 9.49627 125.108C8.77093 125.396 8.21093 125.801 7.81627 126.324C7.4216 126.857 7.22426 127.47 7.22426 128.164Z" fill="#999999"/>
<path d="M6.13626 117.167H16.6163V113.615H17.8643V122.207H16.6163V118.655H6.13626V117.167Z" fill="#999999"/>
<path d="M6.13626 101.734H17.8643V108.486H16.6163V103.206H12.9363V107.654H11.6723V103.206H7.40026V108.662H6.13626V101.734Z" fill="#999999"/>
<path d="M5.92826 95.3111C5.92826 94.2765 6.16826 93.3591 6.64826 92.5591C7.12826 91.7698 7.8216 91.1458 8.72826 90.6871C9.63493 90.2391 10.7229 90.0151 11.9923 90.0151C12.9416 90.0151 13.7896 90.1485 14.5363 90.4151C15.2936 90.6818 15.9336 91.0551 16.4563 91.5351C16.9789 92.0258 17.3789 92.5965 17.6563 93.2471C17.9336 93.8978 18.0723 94.6125 18.0723 95.3911C18.0723 96.2125 17.9176 96.8951 17.6083 97.4391C17.3096 97.9831 16.9843 98.4258 16.6323 98.7671L15.6723 97.9671C15.9816 97.6685 16.2429 97.3165 16.4563 96.9111C16.6696 96.5165 16.7763 96.0258 16.7763 95.4391C16.7763 94.6498 16.5843 93.9618 16.2003 93.3751C15.8163 92.7885 15.2669 92.3351 14.5523 92.0151C13.8483 91.6951 13.0109 91.5351 12.0403 91.5351C11.0483 91.5351 10.1896 91.6845 9.46426 91.9831C8.7496 92.2925 8.19493 92.7405 7.80026 93.3271C7.41626 93.9138 7.22426 94.6231 7.22426 95.4551C7.22426 95.8711 7.28293 96.2658 7.40026 96.6391C7.52826 97.0231 7.69893 97.3325 7.91227 97.5671H10.9843V95.0711H12.2163V98.9271H7.28827C6.8936 98.5431 6.56827 98.0365 6.31227 97.4071C6.05627 96.7885 5.92826 96.0898 5.92826 95.3111Z" fill="#999999"/>
<path d="M6.13626 79.6355L17.8643 83.6035V85.2515L6.13626 89.2355V87.6675L12.6963 85.6195C13.3683 85.4062 14.0243 85.2035 14.6643 85.0115C15.3149 84.8195 15.9816 84.6275 16.6643 84.4355V84.3715C15.9816 84.1902 15.3149 83.9982 14.6643 83.7955C14.0243 83.6035 13.3683 83.4062 12.6963 83.2035L6.13626 81.1235V79.6355ZM9.72026 81.6995H10.8883V87.1075H9.72026V81.6995Z" fill="#999999"/>
<path d="M6.13626 72H17.8643V75.344C17.8643 76.2187 17.7523 76.9867 17.5283 77.648C17.3149 78.3093 16.9576 78.8213 16.4563 79.184C15.9549 79.5467 15.2776 79.728 14.4243 79.728C13.6029 79.728 12.9256 79.5467 12.3923 79.184C11.8589 78.8213 11.4589 78.3147 11.1923 77.664C10.9363 77.0133 10.8083 76.2613 10.8083 75.408V73.472H6.13626V72ZM12.0083 73.472V75.216C12.0083 76.24 12.2003 77.0027 12.5843 77.504C12.9683 78.0053 13.5816 78.256 14.4243 78.256C15.2776 78.256 15.8643 77.9947 16.1843 77.472C16.5043 76.96 16.6643 76.1867 16.6643 75.152V73.472H12.0083Z" fill="#999999"/>
</svg>
